<?xml version="1.0" encoding="UTF-8" standalone="no"?>
<!-- Created with Inkscape (http://www.inkscape.org/) -->

<svg
   xmlns:dc="http://purl.org/dc/elements/1.1/"
   xmlns:cc="http://creativecommons.org/ns#"
   xmlns:rdf="http://www.w3.org/1999/02/22-rdf-syntax-ns#"
   xmlns:svg="http://www.w3.org/2000/svg"
   xmlns="http://www.w3.org/2000/svg"
   xmlns:sodipodi="http://sodipodi.sourceforge.net/DTD/sodipodi-0.dtd"
   xmlns:inkscape="http://www.inkscape.org/namespaces/inkscape"
   width="299.75507mm"
   height="143.81651mm"
   viewBox="0 0 299.75507 143.81651"
   version="1.1"
   id="svg8"
   inkscape:version="0.92.3 (2405546, 2018-03-11)"
   sodipodi:docname="Nepal_road_sign B42.svg">
  <defs
     id="defs2">
    <pattern
       y="0"
       x="0"
       height="6"
       width="6"
       patternUnits="userSpaceOnUse"
       id="EMFhbasepattern" />
  </defs>
  <sodipodi:namedview
     id="base"
     pagecolor="#ffffff"
     bordercolor="#666666"
     borderopacity="1.0"
     inkscape:pageopacity="0.0"
     inkscape:pageshadow="2"
     inkscape:zoom="0.98994949"
     inkscape:cx="595.06167"
     inkscape:cy="390.65517"
     inkscape:document-units="mm"
     inkscape:current-layer="layer1"
     showgrid="false"
     inkscape:window-width="1920"
     inkscape:window-height="1017"
     inkscape:window-x="-8"
     inkscape:window-y="-8"
     inkscape:window-maximized="1" />
  <metadata
     id="metadata5">
    <rdf:RDF>
      <cc:Work
         rdf:about="">
        <dc:format>image/svg+xml</dc:format>
        <dc:type
           rdf:resource="http://purl.org/dc/dcmitype/StillImage" />
        <dc:title />
      </cc:Work>
    </rdf:RDF>
  </metadata>
  <g
     inkscape:label="Layer 1"
     inkscape:groupmode="layer"
     id="layer1"
     transform="translate(272.61768,-11.604304)">
    <path
       style="fill:#000000;fill-opacity:1;fill-rule:evenodd;stroke:none;stroke-width:1.1708796;stroke-miterlimit:4;stroke-dasharray:none;stroke-opacity:1"
       d="M -257.38331,11.604304 H 11.903028 c 8.439836,0 15.234362,6.794526 15.234362,15.234363 V 140.18645 c 0,8.43984 -6.794526,15.23437 -15.234362,15.23437 H -257.38331 c -8.43984,0 -15.23437,-6.79453 -15.23437,-15.23437 V 26.838667 c 0,-8.439837 6.79453,-15.234363 15.23437,-15.234363 z"
       id="rect882"
       inkscape:connector-curvature="0" />
    <path
       style="fill:#ffdb00;fill-opacity:1;fill-rule:evenodd;stroke:none;stroke-width:1.36194575;stroke-miterlimit:4;stroke-dasharray:none;stroke-opacity:1"
       d="M -256.64778,17.022223 H 11.338793 c 5.450773,0 9.838941,4.388168 9.838941,9.838941 V 140.42921 c 0,5.45078 -4.388168,9.83895 -9.838941,9.83895 H -256.64778 c -5.45078,0 -9.83894,-4.38817 -9.83894,-9.83895 V 26.861164 c 0,-5.450773 4.38816,-9.838941 9.83894,-9.838941 z"
       id="rect884"
       inkscape:connector-curvature="0"
       sodipodi:nodetypes="sssssssss" />
    <g
       aria-label="cufl8 8fOe;{g "
       style="font-style:normal;font-variant:normal;font-weight:400;font-size:49.12193298px;line-height:111.78236008%;font-family:Milan;text-align:start;letter-spacing:1.2382499px;word-spacing:0px;text-anchor:start;fill:#000000;fill-opacity:1;stroke:none;stroke-width:0.33487466"
       id="text849">
      <path
         d="m -218.92871,40.883723 h -4.905 v 19.596006 l -4.37732,-2.950195 v -6.236182 l -0.58764,-0.04797 -1.03137,-0.299817 -2.01477,-0.779522 -0.29981,-0.203876 0.25184,0.743545 q 0.29982,0.887457 0.29982,1.918826 0,4.125475 -4.52123,5.000939 -0.50369,0.107934 -1.23525,0.107934 -4.38931,0 -7.56736,-4.473262 -0.52768,-0.755538 -1.03137,-1.822885 l -1.3192,-2.84226 1.91883,-0.887457 0.4917,1.427127 q 1.00738,2.938201 3.72972,4.173445 1.18727,0.53967 2.20665,0.53967 1.06734,0 2.17067,-0.491699 1.25923,-0.563655 1.64299,-1.427126 0.35978,-0.827494 0.46772,-1.66698 0,-0.887457 -0.44373,-1.918826 l -0.44373,-0.779522 -2.4585,1.17528 -2.06273,0.635611 -0.4917,0.09594 -2.36256,-3.525842 4.37732,-1.475097 q 2.79429,-0.94742 2.85426,-2.506465 0.048,-1.523068 -3.1061,-1.523068 -1.46311,0 -3.19005,0.731552 l -1.31919,0.743545 -2.21864,-3.837651 1.77491,-0.731552 q 1.76292,-0.743545 3.87363,-0.743545 2.32657,0 4.2454,1.523068 1.7989,1.427126 2.63838,3.693739 0.3358,0.923434 0.3358,1.762921 0,1.079339 -0.58764,2.206649 l -0.58764,0.839486 0.79151,0.443728 q 0.9834,0.443729 1.8109,0.443729 1.28321,0 2.26661,-0.647604 0.33579,-0.143912 0.73155,-0.635611 v -5.348726 h -2.84226 l -2.06274,-3.885621 h 12.12458 z"
         style="font-style:normal;font-variant:normal;font-weight:400;font-size:49.12193298px;font-family:Milan;letter-spacing:1.2382499px;fill:#000000;stroke-width:0.33487466"
         id="path915"
         inkscape:connector-curvature="0" />
      <path
         d="m -199.64151,36.998102 2.06274,3.885621 h -4.905 v 19.596006 l -4.37732,-2.950195 V 40.883723 h -4.17344 l -0.048,10.805386 q -0.23985,1.031369 -1.07933,1.031369 -1.23525,0 -3.39393,-1.619009 -2.03875,-1.53506 -2.65038,-2.758312 l -0.19188,-0.779522 q 0,-0.743545 0.77953,-1.235244 l 0.44372,-0.143912 h 1.82289 v -5.300756 h -4.42529 l -2.06274,-3.885621 z"
         style="font-style:normal;font-variant:normal;font-weight:400;font-size:49.12193298px;font-family:Milan;letter-spacing:1.2382499px;fill:#000000;stroke-width:0.33487466"
         id="path917"
         inkscape:connector-curvature="0" />
      <path
         d="m -184.9355,40.883723 h -4.905 v 19.596006 l -4.37732,-2.950195 V 40.883723 h -2.84226 l -2.06274,-3.885621 h 12.12458 z"
         style="font-style:normal;font-variant:normal;font-weight:400;font-size:49.12193298px;font-family:Milan;letter-spacing:1.2382499px;fill:#000000;stroke-width:0.33487466"
         id="path919"
         inkscape:connector-curvature="0" />
      <path
         d="m -166.04406,36.158615 -0.73155,-1.319192 q -1.60702,-2.890231 -5.40869,-4.665145 -1.4631,-0.695574 -3.0941,-0.695574 -5.64855,0 -5.64855,5.99633 v 0.887457 l 0.10794,0.635611 h 5.15684 l 2.06274,3.885621 h -4.91699 v 19.596006 l -4.36533,-2.950195 V 40.883723 h -2.85425 l -2.06274,-3.885621 h 5.25278 l -0.73155,-1.427127 q -0.74354,-1.415134 -0.74354,-3.38193 0,-2.674363 2.00277,-4.449277 1.91883,-1.690964 4.62917,-1.690964 2.79429,0 5.75647,1.810891 2.85426,1.750928 4.36533,4.173446 l 1.22325,1.966796 z"
         style="font-style:normal;font-variant:normal;font-weight:400;font-size:49.12193298px;font-family:Milan;letter-spacing:1.2382499px;fill:#000000;stroke-width:0.33487466"
         id="path921"
         inkscape:connector-curvature="0" />
      <path
         d="m -149.91092,40.883723 h -6.48803 v 6.188212 l -9.77402,0.04797 q -0.93543,0.239853 -1.17528,1.66698 0,0.623618 0.44373,1.091332 0.4797,0.503691 1.07934,0.335794 l 3.72971,-1.031368 q 1.42713,-0.395758 2.65038,-0.395758 3.04614,0 4.91699,3.837651 0.4917,1.319192 0.4917,2.30259 0,3.238018 -3.78968,4.964961 -1.28321,0.587641 -2.9382,0.587641 -3.7657,0 -7.56737,-3.238018 -2.13469,-1.822885 -3.53783,-3.489864 l -1.28322,-1.523068 1.58303,-1.331185 q 1.27123,1.918825 2.30259,2.950194 2.84226,2.830268 5.90039,2.998165 l 0.92344,0.04797 q 1.58303,0.08395 3.53783,-0.887457 2.26661,-1.115318 2.26661,-2.554437 0,-1.031368 -1.07934,-1.223251 -0.3118,0 -3.93359,1.031369 -1.72694,0.491699 -2.50646,0.491699 h -0.44373 l -0.23985,-0.09594 q -1.7989,-0.455721 -3.65777,-2.734326 -1.89484,-2.350561 -1.75092,-4.14946 l 0.048,-0.58764 q 0.29981,-1.66698 1.87085,-2.458496 0.4917,-0.239853 1.52307,-0.443728 h 6.09227 v -2.398532 h -13.70761 l -2.06274,-3.885621 h 24.513 z"
         style="font-style:normal;font-variant:normal;font-weight:400;font-size:49.12193298px;font-family:Milan;letter-spacing:1.2382499px;fill:#000000;stroke-width:0.33487466"
         id="path923"
         inkscape:connector-curvature="0" />
      <path
         d="m -100.99885,40.883723 h -6.48803 v 6.188212 l -9.77402,0.04797 q -0.93543,0.239853 -1.17528,1.66698 0,0.623618 0.44373,1.091332 0.47971,0.503691 1.07934,0.335794 l 3.72972,-1.031368 q 1.42712,-0.395758 2.65037,-0.395758 3.04614,0 4.91699,3.837651 0.4917,1.319192 0.4917,2.30259 0,3.238018 -3.78968,4.964961 -1.28321,0.587641 -2.9382,0.587641 -3.76569,0 -7.56737,-3.238018 -2.13469,-1.822885 -3.53783,-3.489864 l -1.28322,-1.523068 1.58303,-1.331185 q 1.27123,1.918825 2.3026,2.950194 2.84226,2.830268 5.90038,2.998165 l 0.92344,0.04797 q 1.58303,0.08395 3.53783,-0.887457 2.26662,-1.115318 2.26662,-2.554437 0,-1.031368 -1.07934,-1.223251 -0.31181,0 -3.9336,1.031369 -1.72694,0.491699 -2.50646,0.491699 h -0.44373 l -0.23985,-0.09594 q -1.7989,-0.455721 -3.65776,-2.734326 -1.89484,-2.350561 -1.75093,-4.14946 l 0.048,-0.58764 q 0.29981,-1.66698 1.87085,-2.458496 0.4917,-0.239853 1.52307,-0.443728 h 6.09227 v -2.398532 h -13.70761 l -2.06274,-3.885621 h 24.513 z"
         style="font-style:normal;font-variant:normal;font-weight:400;font-size:49.12193298px;font-family:Milan;letter-spacing:1.2382499px;fill:#000000;stroke-width:0.33487466"
         id="path925"
         inkscape:connector-curvature="0" />
      <path
         d="m -88.943223,40.883723 h -4.904998 v 19.596006 l -4.37732,-2.950195 V 40.883723 h -2.842259 l -2.06274,-3.885621 h 12.12458 z"
         style="font-style:normal;font-variant:normal;font-weight:400;font-size:49.12193298px;font-family:Milan;letter-spacing:1.2382499px;fill:#000000;stroke-width:0.33487466"
         id="path927"
         inkscape:connector-curvature="0" />
      <path
         d="m -70.927246,40.883723 h -4.964961 v 5.396697 h -5.696513 q -3.405916,0 -3.405916,1.858862 0,0.143912 0.01199,0.299817 0.107934,0.791515 0.887457,0.791515 0.395758,0 1.283215,-0.239853 l 2.110708,-0.599633 0.827493,-0.09594 q 2.554437,0 4.569203,3.489864 0.53967,0.935427 0.53967,2.158678 0,2.986173 -3.046136,5.108873 -0.827493,0.587641 -1.810891,0.983398 l -1.079339,0.443729 3.333959,4.665144 -2.206649,1.379156 -4.029534,-5.900388 -1.12731,-0.143912 q -2.554436,-0.587641 -2.950194,-2.950195 l -0.04797,-0.875464 q -0.119926,-2.170671 1.918826,-2.170671 0.755537,0 1.031368,0.251846 l 0.983398,0.875464 q 0.647604,0.599633 1.415134,0.599633 1.870855,0 3.645769,-1.870855 0.923434,-0.983398 0.923434,-1.762921 l -0.143911,-0.551662 q -0.09594,-0.143912 -0.443729,-0.239853 -0.575647,0 -2.098715,0.611625 -1.523068,0.611626 -2.266613,0.611626 -3.20204,0 -5.060902,-5.252785 -0.299817,-0.827493 -0.299817,-1.523068 0,-1.918825 2.158679,-2.84226 0.155905,-0.107934 2.170671,-0.53967 h 3.633776 v -1.966796 h -9.582135 l -2.062737,-3.885621 h 18.816483 z"
         style="font-style:normal;font-variant:normal;font-weight:400;font-size:49.12193298px;font-family:Milan;letter-spacing:1.2382499px;fill:#000000;stroke-width:0.33487466"
         id="path929"
         inkscape:connector-curvature="0" />
      <path
         d="m -63.752618,44.661411 v -3.537835 q 0,-0.827493 -0.107934,-1.079339 -0.239853,-1.079339 -1.079339,-1.079339 l -0.683582,0.09594 q -0.455721,0.07196 -0.791516,1.007383 -0.287823,0.779523 -0.287823,1.355171 0,2.25462 2.014766,3.046135 z m 4.017541,7.315522 v 2.062738 l -0.287824,0.647603 q -0.58764,0.683582 -1.774914,0.683582 -1.12731,0 -2.986172,-2.062738 -1.726943,-1.906832 -2.014767,-3.190047 -0.155904,-1.343178 0.635611,-1.774914 0.167898,-0.09594 0.935428,-0.191882 h 1.475097 v -2.110708 l -1.139303,-0.04797 q -2.350561,-0.107934 -4.029533,-1.918825 -1.271222,-1.379156 -1.271222,-3.046136 l 0.143912,-1.079339 q 0.395757,-1.439119 1.762921,-2.25462 1.235243,-0.743545 2.806282,-0.743545 4.185438,0 5.45666,4.173445 0.287824,0.971406 0.287824,2.314584 v 4.713115 l 4.821049,-0.04797 v -7.267551 l -2.950194,0.04797 -2.062738,-3.885621 h 12.232513 l 2.062737,3.885621 -4.761086,-0.04797 v 19.452093 l -4.521232,-2.854253 v -5.50463 z"
         style="font-style:normal;font-variant:normal;font-weight:400;font-size:49.12193298px;font-family:Milan;letter-spacing:1.2382499px;fill:#000000;stroke-width:0.33487466"
         id="path931"
         inkscape:connector-curvature="0" />
      <path
         d="m -29.102828,51.053498 -1.175281,0.383765 -1.475097,0.251846 h -0.935427 q -0.239853,-0.09594 -0.335795,-0.09594 -1.391148,-0.251846 -2.314583,-1.079339 l -0.983398,-0.887457 -0.04797,0.143912 q -0.311809,0.515684 -1.223251,1.031369 -0.635611,0.527677 -1.571038,0.887456 l -0.395758,0.143912 5.600572,6.883787 -1.966796,1.762921 -7.075669,-8.994495 -1.12731,-1.619009 q -0.791516,-1.12731 -0.791516,-2.30259 0,-1.535061 1.379156,-1.774914 0.215868,-0.03598 0.419743,-0.03598 1.12731,0 1.786906,1.175281 l 0.491699,-0.107934 q 0.89945,-0.17989 0.983398,-0.827494 l 0.04797,-0.347787 v -4.761086 l -6.871794,-0.04797 -2.362554,-3.837651 h 27.223337 l 2.158679,3.837651 h -5.060902 v 19.548034 l -4.377321,-2.950194 z m 0,-10.169775 h -6.332124 v 6.58397 l 0.539669,0.239853 q 0.767531,0.347788 1.571039,0.299817 l 0.743545,-0.04797 q 1.559045,-0.299816 2.794289,-1.139302 0.443729,-0.299817 0.683582,-0.875465 z"
         style="font-style:normal;font-variant:normal;font-weight:400;font-size:49.12193298px;font-family:Milan;letter-spacing:1.2382499px;fill:#000000;stroke-width:0.33487466"
         id="path933"
         inkscape:connector-curvature="0" />
      <path
         d="m -19.613617,27.463937 -0.587641,0.695575 -0.491699,-0.251846 q -0.443728,-0.143912 -1.379155,-0.239853 -1.379156,0 -2.25462,0.935427 -0.887457,0.923435 -0.791516,2.302591 l 0.09594,1.331185 q 0.08395,1.151295 1.822885,3.333959 l 1.666979,2.110708 h -1.523068 l -1.858862,-2.158679 q -1.822884,-2.098715 -2.710341,-5.552601 l -0.143912,-1.17528 q 0,-1.631002 1.07934,-2.674364 1.067346,-1.055354 2.698348,-1.055354 1.966796,0 3.633776,1.523068 z"
         style="font-style:normal;font-variant:normal;font-weight:400;font-size:49.12193298px;font-family:Milan;letter-spacing:1.2382499px;fill:#000000;stroke-width:0.33487466"
         id="path935"
         inkscape:connector-curvature="0" />
      <path
         d="m -4.4279129,49.182644 -6.3800951,0.04797 -0.443728,0.347787 q -0.527677,0.671589 -0.491699,1.66698 0.05996,1.66698 -1.822884,1.66698 -1.43912,0 -2.950195,-2.554437 -1.17528,-1.990781 -1.17528,-3.046135 0,-1.175281 0.983398,-1.66698 0.887457,-0.299816 1.031369,-0.299816 h 11.2491141 v -4.46127 H -19.262833 L -21.32557,36.998102 H 2.791668 l 2.0627375,3.885621 H -0.05059225 V 60.479729 L -4.4279129,57.529534 Z"
         style="font-style:normal;font-variant:normal;font-weight:400;font-size:49.12193298px;font-family:Milan;letter-spacing:1.2382499px;fill:#000000;stroke-width:0.33487466"
         id="path937"
         inkscape:connector-curvature="0" />
    </g>
    <g
       aria-label="DIVERSION AHEAD"
       style="font-style:normal;font-variant:normal;font-weight:normal;font-stretch:normal;font-size:21.62917328px;line-height:1.25;font-family:'Transport Heavy';-inkscape-font-specification:'Transport Heavy, ';font-variant-ligatures:normal;font-variant-caps:normal;font-variant-numeric:normal;font-feature-settings:normal;text-align:center;letter-spacing:0px;word-spacing:0px;writing-mode:lr-tb;text-anchor:middle;fill:#000000;fill-opacity:1;stroke:none;stroke-width:0.12977503"
       id="text878">
      <path
         d="m -187.20676,87.108213 h 0.21122 0.16898 0.21122 0.16898 0.21122 0.54918 0.16898 0.71816 0.12673 0.50693 0.16898 0.16898 0.54918 0.16898 0.16897 0.42245 0.46469 0.12673 0.46469 0.33796 0.21122 l 0.12673,0.04224 h 0.16898 0.16898 l 0.0845,0.04224 0.67591,0.08449 q 6.43172,2.122785 5.57627,9.33603 -1.28846,7.477267 -10.05419,6.674627 h -0.16897 -0.21123 -0.16897 -0.21123 -0.16897 -0.21123 -0.54918 -0.16897 -0.71816 -0.12673 -0.50694 v -0.16898 -0.7604 -0.33796 -0.33795 -0.12674 -0.16897 -0.7604 -0.12674 -0.844885 -0.337956 -0.168978 -0.7604 -0.126734 -0.126733 -1.309579 -0.295711 -0.126734 -0.168978 -0.7604 V 94.881189 94.754455 94.543233 94.4165 94.247522 94.120788 93.275899 92.557743 92.431009 91.924075 91.374897 91.205919 90.487763 90.36103 89.854096 89.389407 89.178184 88.629006 88.460028 87.741872 87.615138 87.108205 Z m 3.12609,12.884566 h 0.59143 0.12673 0.33795 0.12674 0.12673 0.54918 0.16898 0.12673 0.84489 l 0.29571,-0.04224 q 0.39076,-0.04224 0.67591,-0.168978 l 0.25347,-0.04224 q 2.78814,-1.552485 2.49242,-4.858115 -0.41188,-4.90036 -5.15382,-4.477915 h -0.12673 -0.12674 -1.30958 z"
         style="font-style:normal;font-variant:normal;font-weight:normal;font-stretch:normal;font-family:'Transport Heavy';-inkscape-font-specification:'Transport Heavy, ';text-align:center;text-anchor:middle;stroke-width:0.12977503"
         id="path886"
         inkscape:connector-curvature="0" />
      <path
         d="m -169.71754,87.150457 h 0.16897 0.7604 0.16898 0.16898 0.16898 0.71815 0.12674 0.50693 v 16.137393 h -0.54918 -0.16898 -0.7604 -0.16897 -0.16898 -0.16898 -0.71816 -0.12673 -0.50693 v -0.12674 -0.16897 -0.12674 -0.16897 -0.76041 -0.33795 -0.33796 -0.12673 -0.84489 -0.16898 V 99.90829 99.739312 99.52809 98.978911 98.809933 98.091777 97.965044 97.45811 97.289132 97.07791 96.528732 96.359754 95.641598 95.514864 95.00793 94.712219 94.374263 94.036307 93.698351 93.571618 93.444885 92.135306 91.839594 91.586128 91.290416 91.036949 90.825727 90.57226 90.403282 89.642881 89.178192 89.009214 88.840236 88.671258 88.502281 87.784124 87.657391 87.150457 Z"
         style="font-style:normal;font-variant:normal;font-weight:normal;font-stretch:normal;font-family:'Transport Heavy';-inkscape-font-specification:'Transport Heavy, ';text-align:center;text-anchor:middle;stroke-width:0.12977503"
         id="path888"
         inkscape:connector-curvature="0" />
      <path
         d="m -163.67658,87.150457 h 0.12673 0.84489 0.12673 0.7604 0.12674 1.30958 q 0.20066,0.580862 0.25346,0.971623 l 0.12674,0.295712 0.0422,0.295711 0.12673,0.295711 v 0.126734 q 0.10561,0.200661 0.12674,0.464689 0.0422,0.06337 0.0422,0.126733 0.0423,0.06337 0.0423,0.126734 l 0.33795,1.056112 v 0.168978 q 0.0422,0.06337 0.0422,0.126733 0.0528,0.04224 0.0422,0.08449 l 0.0845,0.337956 0.0845,0.337956 q 0.14785,0.28515 0.16898,0.506934 l 0.0422,0.08449 0.0845,0.3802 0.0422,0.211222 q 0.10562,0.168978 0.12674,0.337956 l 0.0422,0.08449 0.0845,0.3802 0.29571,0.971623 0.12674,0.591423 q 0.14785,0.327395 0.21122,0.591423 l 0.16898,0.718156 0.0845,0.211222 0.0422,0.211223 0.0845,0.211222 0.0422,0.126734 0.0422,0.126733 v 0.168978 q 0.0422,0.06337 0.0422,0.126733 0.10561,0.200662 0.12674,0.46469 0.0528,0.04224 0.0422,0.08449 l 0.21122,0.675911 V 99.0634 l 0.0845,-0.168978 0.0845,-0.295711 0.0422,-0.253467 q 0.0951,-0.242906 0.12674,-0.464689 l 0.0422,-0.126734 0.0422,-0.168977 q 0.15841,-0.390762 0.21122,-0.675912 l 0.0422,-0.126734 0.0422,-0.168977 0.0845,-0.337956 0.0422,-0.126734 0.0422,-0.08449 0.21122,-0.7604 0.0422,-0.168978 0.0422,-0.126734 0.0422,-0.168978 0.0845,-0.337955 0.0422,-0.126734 0.0422,-0.08449 0.21122,-0.7604 0.0845,-0.253467 v -0.126734 l 0.0422,-0.08449 0.0845,-0.253467 0.0422,-0.126733 v -0.126733 l 0.0422,-0.126734 0.16898,-0.506934 0.0422,-0.211222 0.0845,-0.211222 0.0422,-0.253467 0.0845,-0.211223 0.0422,-0.211222 0.0845,-0.168978 0.0422,-0.168978 0.0422,-0.211222 q 0.0739,-0.327395 0.16898,-0.506934 v -0.168978 l 0.0845,-0.168978 0.0422,-0.211222 0.16898,-0.549179 0.0423,-0.126733 0.0422,-0.126733 0.0422,-0.126734 V 88.12208 l 0.0422,-0.126733 0.0422,-0.168978 q 0.15842,-0.390762 0.21123,-0.675912 h 1.30957 0.59143 0.12673 0.21122 0.12674 0.16897 0.12674 0.84489 l -0.0845,0.337956 -0.0845,0.295711 -0.12673,0.295712 -0.0422,0.295711 q -0.15842,0.390762 -0.21122,0.675912 l -0.0845,0.337956 -0.21122,0.633667 -0.12674,0.506934 -0.0422,0.126733 -0.25347,0.971623 -0.0845,0.295711 -0.0845,0.211223 -0.0422,0.168978 -0.12673,0.422444 -0.0422,0.211223 -0.0422,0.126733 -0.0422,0.126734 -0.0422,0.08449 q -0.0739,0.369639 -0.16898,0.591422 l -0.0845,0.295712 -0.0422,0.08449 q -0.0634,0.454128 -0.21122,0.7604 l -0.0845,0.337956 -0.0845,0.337956 -0.0845,0.295711 -0.0845,0.337956 q -0.095,0.242906 -0.12673,0.422445 l -0.0422,0.168978 -0.0422,0.126733 -0.0422,0.126734 -0.16898,0.591422 -0.0845,0.337956 -0.0845,0.295712 -0.0845,0.295711 q -0.0951,0.242906 -0.12674,0.422445 l -0.0845,0.253467 -0.0423,0.211222 -0.0845,0.168978 -0.0422,0.253467 -0.0845,0.253469 -0.0422,0.21122 -0.0845,0.21122 q -0.0739,0.36964 -0.16898,0.59142 l -0.0422,0.21123 -0.0422,0.12673 -0.0422,0.16898 -0.0422,0.12673 -0.21122,0.71816 -0.0845,0.33795 -0.0845,0.29571 -0.21122,0.0423 h -0.29571 -0.25347 -0.21122 -0.25347 -0.16898 -0.7604 -0.46469 -0.16898 -0.16897 -0.16898 -0.16898 -0.71816 -0.12673 -0.50693 l -0.0845,-0.29571 -0.0422,-0.16898 -0.0422,-0.0845 -0.21122,-0.67591 v -0.12674 q -0.10562,-0.2429 -0.12674,-0.42244 -0.11617,-0.29571 -0.12673,-0.50693 -0.12673,-0.23235 -0.12673,-0.42245 -0.0634,-0.15842 -0.0845,-0.29571 -0.0634,-0.15842 -0.0845,-0.295709 l -0.12674,-0.295711 v -0.16902 q -0.0634,-0.116173 -0.0845,-0.211223 l -0.0422,-0.08449 -0.0845,-0.3802 -0.0422,-0.211222 q -0.10561,-0.168978 -0.12674,-0.337956 l -0.0422,-0.08449 -0.0845,-0.380201 -0.29571,-0.971623 -0.0422,-0.295711 -0.12673,-0.295711 -0.0422,-0.126734 v -0.126733 l -0.0422,-0.126734 -0.0845,-0.337955 q -0.15841,-0.316834 -0.21122,-0.633668 l -0.0845,-0.295711 -0.0845,-0.295711 -0.0845,-0.295712 -0.0845,-0.295711 -0.0423,-0.211222 -0.0845,-0.337956 q -0.0422,-0.06337 -0.0422,-0.126734 -0.0422,-0.06337 -0.0422,-0.126733 l -0.33795,-1.056112 -0.0422,-0.295711 -0.0845,-0.253467 -0.0422,-0.211223 -0.0845,-0.126733 v -0.126734 l -0.0422,-0.168978 q -0.0422,-0.06337 -0.0422,-0.126733 l -0.33795,-1.056112 V 89.34717 l -0.0845,-0.168978 -0.0422,-0.126733 v -0.126734 q -0.0422,-0.06337 -0.0422,-0.126733 l -0.0423,-0.168978 -0.0845,-0.168978 -0.0422,-0.295711 q -0.24291,-0.570301 -0.29571,-1.013868 z"
         style="font-style:normal;font-variant:normal;font-weight:normal;font-stretch:normal;font-family:'Transport Heavy';-inkscape-font-specification:'Transport Heavy, ';text-align:center;text-anchor:middle;stroke-width:0.12977503"
         id="path890"
         inkscape:connector-curvature="0" />
      <path
         d="m -146.60981,87.108213 h 0.16897 0.71816 0.12673 0.50694 0.84489 0.16898 0.7604 0.12673 0.12673 1.30958 0.71816 0.33795 0.29571 0.16898 0.12674 0.84489 0.16897 0.12674 0.7604 0.54918 0.16897 0.71816 0.12673 0.50694 v 3.21058 h -0.84489 -0.25347 -0.71816 -0.12673 -0.50693 -0.54918 -0.16898 -0.71815 -0.12674 -0.50693 -0.46469 -0.21122 -0.54918 -0.16898 -0.71816 -0.12673 -0.50693 v 3.252825 h 0.12673 0.84489 0.54918 0.16898 0.7604 0.16897 0.16898 0.16898 0.71816 0.33795 0.29571 0.21123 0.54917 0.16898 0.71816 0.12673 0.50694 v 2.999358 h -0.59143 -0.12673 -0.21122 -0.12674 -0.16897 -0.12674 -0.84489 -0.54918 -0.29571 -0.59142 -0.12673 -0.7604 -0.54918 -0.16898 -0.71816 -0.12673 -0.50693 v 3.379558 q 0.0845,0.179536 0.29571,0.126736 h 0.33795 0.84489 0.25347 0.71816 0.12673 0.50693 0.54918 0.16898 0.71816 0.12673 0.50693 0.46469 0.21122 0.54918 0.16898 0.71816 0.12673 0.50693 v 3.21058 h -0.12673 -0.16898 -0.71815 -0.12674 -0.50693 -0.84489 -0.33796 -0.33795 -0.33796 -0.33795 -0.84489 -0.12674 -0.12673 -1.30958 -0.29571 -0.25347 -0.29571 -0.25346 -0.21123 -0.25346 -0.16898 -0.7604 -0.46469 -0.16898 -0.16898 -0.16898 -0.16897 -0.71816 -0.12673 -0.50694 v -0.16898 -0.7604 -0.33796 -0.33795 -0.12674 -0.16897 -0.7604 -0.12674 -0.844887 -0.337956 -0.168978 -0.7604 -0.126734 -0.126733 -1.309579 -0.295711 -0.126734 -0.168978 -0.7604 -0.591423 -0.126734 -0.211222 -0.126733 -0.168978 -0.126734 -0.844889 -0.718156 -0.126734 -0.506934 -0.549178 -0.168978 -0.718156 -0.126733 -0.506934 -0.464689 -0.211223 -0.549178 -0.168978 -0.718156 -0.126734 -0.506933 z"
         style="font-style:normal;font-variant:normal;font-weight:normal;font-stretch:normal;font-family:'Transport Heavy';-inkscape-font-specification:'Transport Heavy, ';text-align:center;text-anchor:middle;stroke-width:0.12977503"
         id="path892"
         inkscape:connector-curvature="0" />
      <path
         d="m -130.81038,87.065968 h 0.33796 0.84489 0.12673 0.12673 1.30958 0.29571 0.12674 0.54917 0.71816 0.16898 0.16898 0.7604 0.59142 0.12673 0.12674 0.12673 0.29571 0.16898 0.12673 0.12674 q 0.30627,0.05281 0.50693,0.04225 l 0.50693,0.08449 0.0845,0.04224 h 0.12674 l 0.0845,0.04225 0.63367,0.211222 q 1.94325,1.024429 2.57692,2.83038 1.24621,4.456793 -2.91487,6.378916 l 0.0845,0.04224 q 0.20066,0.411884 0.3802,0.675912 l 0.12673,0.253467 q 0.0845,0.137294 0.12673,0.253466 l 0.16898,0.253467 q 0.25347,0.380201 0.3802,0.675912 0.25347,0.316834 0.33796,0.591423 0.26402,0.337955 0.3802,0.591417 0.14785,0.24291 0.21122,0.42245 l 0.0845,0.12673 0.0845,0.16898 0.12673,0.12673 0.29571,0.54918 q 0.1373,0.22178 0.21122,0.3802 l 0.0845,0.12673 0.0423,0.0845 0.0845,0.0845 0.0422,0.12674 q 0.39076,0.58086 0.54918,1.01386 h -0.29571 -0.59142 -0.12674 -0.7604 -0.54918 -0.16898 -0.71815 -0.12673 -0.50694 l -0.0422,-0.0845 -0.0845,-0.0845 -0.0422,-0.0845 -0.29571,-0.50694 -0.0422,-0.12673 q -0.20066,-0.24291 -0.25347,-0.46469 -0.25347,-0.26403 -0.33795,-0.54918 -0.25347,-0.31683 -0.33796,-0.59142 l -0.12673,-0.16898 -0.12674,-0.25347 -0.0845,-0.16897 q -0.26402,-0.316835 -0.3802,-0.549179 -0.14785,-0.327395 -0.29571,-0.549179 l -0.0422,-0.126733 q -0.24291,-0.264028 -0.33796,-0.549178 l -0.0845,-0.126734 -0.0422,-0.126733 -0.0845,-0.04225 -0.12673,-0.295711 q -0.0528,-0.04224 -0.0422,-0.08449 -0.31683,-0.411884 -0.46469,-0.760401 h -0.16898 -0.46469 -0.21122 -0.12673 -0.16898 -0.12673 -0.84489 v 6.294428 h -0.54918 -0.16898 -0.7604 -0.16898 -0.16897 -0.16898 -0.71816 -0.12673 -0.50694 v -0.16897 -0.7604 -0.33796 -0.33796 -0.12673 -0.16898 -0.7604 -0.12673 -0.844895 -0.337956 -0.168978 -0.760401 -0.126733 -0.126734 -1.309579 -0.295711 -0.126733 -0.168978 -0.760401 -0.591423 -0.126733 -0.211222 -0.126734 -0.168978 -0.126733 -0.84489 -0.718156 -0.126733 -0.506934 -0.549178 -0.168978 -0.718156 -0.126734 -0.506934 -0.464689 -0.211222 -0.549178 -0.168978 -0.718157 -0.126733 -0.506934 z m 2.99936,6.843606 h 0.21122 0.29571 0.59142 0.12674 0.7604 0.54918 0.16897 0.71816 0.12673 0.50694 l 0.50693,-0.126734 q 1.25677,-0.781522 1.09836,-2.112224 -0.30627,-0.9505 -1.09836,-1.394067 h -0.12673 l -0.0845,-0.04225 -0.54918,-0.126733 h -0.21122 -0.59142 -0.21123 -0.16897 -0.7604 -0.16898 -0.16898 -0.16898 -0.71815 -0.12674 -0.50693 z"
         style="font-style:normal;font-variant:normal;font-weight:normal;font-stretch:normal;font-family:'Transport Heavy';-inkscape-font-specification:'Transport Heavy, ';text-align:center;text-anchor:middle;stroke-width:0.12977503"
         id="path894"
         inkscape:connector-curvature="0" />
      <path
         d="m -108.53697,86.685768 q 4.36174,-0.105611 7.09707,2.661402 l -0.0845,0.08449 -0.42245,0.337956 -0.0845,0.126733 -0.12674,0.126734 -0.16898,0.08449 -0.12673,0.126733 -0.12673,0.126734 -0.0845,0.126733 -0.16898,0.08449 q -0.14786,0.200661 -0.25347,0.295711 l -0.25346,0.168978 -0.0422,0.08449 -0.0845,0.04225 q -0.22178,0.274589 -0.42244,0.422445 -2.6614,-2.175591 -5.49178,-1.394068 -0.15842,0.147855 -0.33796,0.211222 -0.23234,0.242906 -0.42244,0.3802 l -0.0423,0.08449 -0.21122,0.506934 q 0.0211,0.84489 0.54918,1.351823 l 0.71815,0.253467 0.67591,0.126734 q 0.31684,0.105611 0.54918,0.126733 l 0.16898,0.04225 0.16898,0.04224 0.16898,0.04224 0.16897,0.04224 0.21123,0.08449 h 0.12673 l 0.16898,0.04225 0.21122,0.08449 0.16898,0.04224 h 0.12673 q 0.24291,0.09505 0.42245,0.126733 l 0.33795,0.08449 q 0.20066,0.09505 0.33796,0.126734 l 0.12673,0.04224 0.54918,0.211223 0.0845,0.08449 q 0.41188,0.1901 0.67591,0.422444 0.0739,0.04224 0.0845,0.08449 l 0.0845,0.04224 q 0.1901,0.137294 0.29571,0.253467 0.26403,0.200661 0.42245,0.3802 1.54192,2.143907 0.7604,4.43567 -0.83433,2.344567 -2.95712,3.083847 -6.6007,2.02774 -10.77234,-2.57691 l 0.12673,-0.16898 0.16898,-0.0845 q 0.0739,-0.0951 0.16898,-0.12673 0.16898,-0.221787 0.3802,-0.295715 0.0739,-0.09505 0.16898,-0.126733 0.0739,-0.09505 0.16898,-0.126733 l 0.0845,-0.126734 0.12674,-0.08449 0.0845,-0.08449 0.12673,-0.08449 0.12673,-0.04224 0.0845,-0.126734 0.0845,-0.04224 0.0845,-0.08449 0.0845,-0.04224 0.0845,-0.04224 0.59142,-0.506934 q 2.7987,2.745893 6.25218,1.985493 l 0.12674,-0.0845 0.12673,-0.0422 0.0423,-0.0845 0.63366,-0.422439 q 0.14786,-0.359079 0.29571,-0.591423 0.12674,-1.151162 -0.71815,-1.816513 l -0.16898,-0.04224 -0.12673,-0.08449 -0.16898,-0.04225 -0.33796,-0.08449 h -0.12673 l -0.16898,-0.04224 -0.0845,-0.04224 q -0.39076,-0.06337 -0.67591,-0.168978 h -0.12673 l -0.12674,-0.04224 -0.33795,-0.08449 q -0.52806,-0.06337 -0.88714,-0.211222 -4.12939,-0.538617 -4.5624,-4.308937 0.0951,-4.763065 5.61852,-5.365049 z"
         style="font-style:normal;font-variant:normal;font-weight:normal;font-stretch:normal;font-family:'Transport Heavy';-inkscape-font-specification:'Transport Heavy, ';text-align:center;text-anchor:middle;stroke-width:0.12977503"
         id="path896"
         inkscape:connector-curvature="0" />
      <path
         d="m -96.88806,87.150457 h 0.168978 0.760401 0.168977 0.168978 0.168978 0.718156 0.126734 0.506934 v 16.137393 h -0.549179 -0.168977 -0.760401 -0.168978 -0.168978 -0.168978 -0.718156 -0.126733 -0.506934 v -0.12674 -0.16897 -0.12674 -0.16897 -0.76041 -0.33795 -0.33796 -0.12673 -0.84489 -0.16898 V 99.90829 99.739312 99.52809 98.978911 98.809933 98.091777 97.965044 97.45811 97.289132 97.07791 96.528732 96.359754 95.641598 95.514864 95.00793 94.712219 94.374263 94.036307 93.698351 93.571618 93.444885 92.135306 91.839594 91.586128 91.290416 91.036949 90.825727 90.57226 90.403282 89.642881 89.178192 89.009214 88.840236 88.671258 88.502281 87.784124 87.657391 87.150457 Z"
         style="font-style:normal;font-variant:normal;font-weight:normal;font-stretch:normal;font-family:'Transport Heavy';-inkscape-font-specification:'Transport Heavy, ';text-align:center;text-anchor:middle;stroke-width:0.12977503"
         id="path898"
         inkscape:connector-curvature="0" />
      <path
         d="m -81.95464,86.685768 q 7.171,0.05281 8.195429,7.350539 0.454128,6.547893 -4.604648,8.955833 -4.889799,1.77426 -8.322163,-1.39407 -3.654147,-4.118838 -2.027735,-9.462764 1.774268,-5.079899 6.759117,-5.449538 z m 0.08449,3.21058 q -4.05547,0.770962 -3.717514,5.914227 0.158416,3.041603 2.492424,4.308935 h 0.126733 q 0.200662,0.11617 0.380201,0.12674 l 0.08449,0.0422 0.506933,0.12673 q 4.456793,-0.0422 4.646893,-4.5624 0.390761,-5.808616 -4.520159,-5.956472 z"
         style="font-style:normal;font-variant:normal;font-weight:normal;font-stretch:normal;font-family:'Transport Heavy';-inkscape-font-specification:'Transport Heavy, ';text-align:center;text-anchor:middle;stroke-width:0.12977503"
         id="path900"
         inkscape:connector-curvature="0" />
      <path
         d="m -70.823214,87.065968 h 0.591422 0.211223 0.168978 0.7604 0.168978 0.168978 0.168978 0.718156 0.126734 0.506933 l 0.168978,0.295712 0.168978,0.253466 0.168978,0.253467 0.168978,0.253467 0.168978,0.253467 0.126733,0.126734 0.04225,0.126733 q 0.05281,0.04224 0.04224,0.08449 0.306273,0.327395 0.422445,0.633667 0.306273,0.327395 0.422445,0.633667 l 0.168978,0.211223 0.168978,0.253467 q 0.116172,0.1901 0.211222,0.295711 l 0.04224,0.126733 q 0.158417,0.168978 0.211222,0.337956 0.422445,0.475251 0.591423,0.887134 l 0.168978,0.253467 q 0.0528,0.04224 0.04224,0.08449 0.316834,0.359078 0.464689,0.633667 l 0.168978,0.253467 0.126734,0.253467 0.168978,0.253467 0.168978,0.168978 0.126733,0.211222 0.08449,0.211223 q 0.274589,0.274589 0.3802,0.549178 l 0.126734,0.168978 0.08449,0.168978 0.126733,0.126733 q 0.200661,0.295711 0.295712,0.506934 l 0.126733,0.126733 0.08449,0.126734 0.04224,0.126733 0.08449,0.04224 q 0.137295,0.306272 0.295712,0.464689 l 0.04224,0.126733 q 0.05281,0.04224 0.04225,0.08449 0.390761,0.433006 0.549178,0.802645 l 0.04224,-0.295711 V 97.246888 96.908932 96.739954 95.979553 95.514864 95.345886 95.176908 95.00793 94.838952 94.120796 93.994063 93.487129 93.233662 92.515506 92.388773 91.881839 91.332661 91.163683 90.445527 90.318793 89.811859 89.34717 89.135948 88.58677 88.417792 87.699635 87.572902 87.065968 h 0.549179 0.168978 0.7604 0.168978 0.168978 0.168978 0.718156 0.126734 0.506933 v 16.137392 h -0.126733 -0.506934 -0.422445 -0.295711 -0.253467 -0.211222 -0.168978 -0.168978 -0.168978 -0.126734 -0.126733 -0.126733 -0.08449 0.08449 -0.08449 -0.337956 -0.126734 -0.549178 l -0.04224,-0.0845 q -0.147856,-0.1901 -0.211223,-0.33796 -0.0528,-0.0422 -0.04224,-0.0845 -0.390762,-0.43301 -0.549178,-0.80265 -0.05281,-0.0422 -0.04225,-0.0845 l -0.168978,-0.25347 q -0.221783,-0.25346 -0.337956,-0.50693 l -0.211222,-0.25347 -0.168978,-0.29571 -0.168978,-0.29571 q -0.28515,-0.316832 -0.422445,-0.591421 l -0.08449,-0.08449 q -0.168978,-0.36964 -0.3802,-0.591423 l -0.04224,-0.08449 -0.08449,-0.126734 -0.380201,-0.591422 q -0.147855,-0.1901 -0.211222,-0.337956 -0.05281,-0.04224 -0.04225,-0.08449 l -0.08449,-0.04224 -0.168977,-0.295712 -0.04225,-0.08449 q -0.147856,-0.1901 -0.211222,-0.337956 -0.09505,-0.105611 -0.126734,-0.211222 l -0.168978,-0.168978 -0.168978,-0.253467 -0.08449,-0.211222 -0.08449,-0.04224 -0.168977,-0.295711 -0.380201,-0.549178 -0.08449,-0.168978 -0.08449,-0.168978 -0.126733,-0.126734 -0.08449,-0.126733 -0.04225,-0.126733 q -0.211222,-0.232345 -0.337955,-0.422445 l -0.08449,-0.168978 q -0.179539,-0.242906 -0.253467,-0.422445 -0.07393,-0.04224 -0.08449,-0.08449 l -0.08449,-0.08449 -0.04225,-0.08449 -0.168978,-0.295711 -0.3802,-0.549178 v 10.814585 h -0.549178 -0.168978 -0.760401 -0.168978 -0.168977 -0.168978 -0.718156 -0.126734 -0.506934 v -0.12673 -0.16898 -0.12674 -0.16897 -0.7604 -0.33796 -0.33796 -0.12673 -0.84489 -0.16898 -0.211217 -0.168978 -0.211222 -0.549179 -0.168978 -0.718156 -0.126733 -0.506934 -0.168978 -0.211222 -0.549178 -0.168978 -0.718156 -0.126734 -0.506934 -0.295711 -0.337956 -0.337956 -0.337955 -0.126734 -0.126733 -1.309579 -0.295712 -0.253466 -0.295712 -0.253467 -0.211222 -0.253467 -0.168978 -0.7604 -0.46469 -0.168978 -0.168978 -0.168977 -0.168978 -0.718157 -0.126733 -0.506934 z"
         style="font-style:normal;font-variant:normal;font-weight:normal;font-stretch:normal;font-family:'Transport Heavy';-inkscape-font-specification:'Transport Heavy, ';text-align:center;text-anchor:middle;stroke-width:0.12977503"
         id="path902"
         inkscape:connector-curvature="0" />
      <path
         d="m -157.6145,114.14468 h 0.54918 1.30958 0.59142 0.12673 0.21122 0.12674 0.16898 0.12673 0.84489 v 0.12673 q 0.17954,0.3802 0.25347,0.67591 l 0.0845,0.29572 0.0422,0.16897 q 0.0422,0.0634 0.0422,0.12674 0.0423,0.0634 0.0423,0.12673 0.0422,0.0634 0.0422,0.12673 0.10561,0.16898 0.12674,0.33796 l 0.25346,0.67591 v 0.12673 q 0.20066,0.39077 0.25347,0.71816 0.20066,0.46469 0.25347,0.80265 0.0634,0.12673 0.0845,0.25346 l 0.0845,0.16898 q 0.0634,0.21122 0.12674,0.33796 v 0.12673 q 0.0422,0.0634 0.0422,0.12673 0.10561,0.16898 0.12674,0.33796 l 0.25346,0.67591 0.0422,0.16898 0.0422,0.0845 0.0845,0.3802 0.0845,0.16898 0.0845,0.21122 0.0422,0.12673 0.0422,0.16898 0.0845,0.25347 q 0.0634,0.21122 0.12673,0.33795 v 0.12674 q 0.0422,0.0634 0.0422,0.12673 0.10562,0.16898 0.12674,0.33796 l 0.25346,0.67591 0.0422,0.25346 0.12673,0.25347 0.0845,0.25347 v 0.12673 l 0.0845,0.12673 0.0422,0.16898 0.0422,0.21122 q 0.32739,0.74984 0.42244,1.26734 0.0422,0.0634 0.0422,0.12673 0.32739,0.74984 0.42244,1.26734 l 0.0845,0.12673 0.0423,0.16898 0.0422,0.16898 0.0422,0.12673 0.0422,0.16898 q 0.0422,0.0634 0.0422,0.12673 0.0422,0.0634 0.0422,0.12673 0.0422,0.0634 0.0422,0.12674 l 0.0845,0.12673 v 0.12673 q 0.0422,0.0634 0.0422,0.12674 0.10561,0.16898 0.12673,0.33795 0.1373,0.31684 0.16898,0.50694 l 0.0845,0.25346 h -0.25347 -0.16898 -0.7604 -0.46469 -0.16897 -0.16898 -0.16898 -0.16898 -0.71815 -0.12674 -0.50693 l -0.0845,-0.25346 v -0.16898 l -0.0845,-0.12673 v -0.12674 q -0.12673,-0.23234 -0.12673,-0.42244 l -0.0845,-0.12674 v -0.12673 l -0.0422,-0.16898 -0.12673,-0.29571 -0.29571,-1.05611 h -0.7604 -0.84489 -0.29571 -0.25347 -0.21122 -0.25347 -0.16898 -0.7604 -0.46469 -0.16897 -0.16898 -0.16898 -0.16898 -0.71815 -0.12674 -0.50693 l -0.0422,0.21122 -0.0422,0.21123 -0.0845,0.16897 q -0.0528,0.23235 -0.12673,0.42245 l -0.0422,0.21122 -0.0422,0.0845 -0.12674,0.42244 -0.0422,0.16898 -0.0422,0.12674 q -0.0739,0.22178 -0.12674,0.33795 l -0.12673,0.50693 h -0.16898 -0.16898 -0.12673 -0.84489 -0.12673 -0.7604 -0.12674 -1.30958 l 0.0845,-0.33795 0.12674,-0.42245 0.0422,-0.12673 0.0422,-0.12673 0.0422,-0.12674 0.0422,-0.0845 0.21123,-0.67591 0.0422,-0.12673 0.0422,-0.12673 0.0422,-0.16898 0.0845,-0.16898 0.12673,-0.46469 0.0422,-0.12673 0.0422,-0.12674 0.0423,-0.12673 0.0422,-0.0845 q 0.12673,-0.48581 0.25347,-0.7604 l 0.0845,-0.29571 0.0422,-0.0845 q 0.12673,-0.48581 0.25347,-0.7604 0.0528,-0.21122 0.12673,-0.33796 l 0.0845,-0.33795 0.12673,-0.29571 0.0845,-0.33796 0.0422,-0.0845 q 0.12673,-0.48581 0.25346,-0.7604 l 0.0845,-0.33795 0.33796,-0.92938 0.0845,-0.29571 0.0422,-0.12674 0.0422,-0.12673 q 0.12673,-0.40132 0.25346,-0.67591 l 0.0845,-0.25347 0.0423,-0.12673 v -0.12674 l 0.0422,-0.12673 0.29571,-0.7604 0.0423,-0.25347 0.0845,-0.21122 0.0845,-0.16898 q 0.0845,-0.40132 0.21123,-0.67591 l 0.0422,-0.21122 0.0422,-0.12673 0.0422,-0.0845 q 0.12673,-0.48582 0.25347,-0.7604 l 0.0422,-0.16898 0.0422,-0.16898 q 0.11617,-0.24291 0.16897,-0.46469 l 0.12674,-0.42244 0.0422,-0.12674 0.33796,-0.97162 z m 1.81651,3.71751 -0.12673,0.46469 -0.0422,0.0845 -0.21122,0.7604 -0.25347,0.71816 -0.0422,0.0845 -0.25347,0.92938 -0.0422,0.16897 -0.25347,0.71816 -0.0845,0.21122 q -0.0422,0.33796 -0.16898,0.59143 -0.0317,0.2429 -0.12673,0.46468 l -0.0422,0.16898 q -0.0845,0.25347 -0.16898,0.42245 l -0.25347,0.92938 h 0.12674 0.16897 0.16898 0.16898 0.16898 0.71815 0.12674 0.50693 0.16898 0.46469 0.21122 0.12673 0.16898 0.12673 0.84489 l -0.0845,-0.33796 -0.25347,-0.80265 -0.21122,-0.71815 q -0.15842,-0.40132 -0.21123,-0.67591 l -0.0422,-0.0845 q -0.0845,-0.30627 -0.16898,-0.50694 l -0.0422,-0.16897 -0.0422,-0.16898 -0.0845,-0.21122 -0.0422,-0.25347 -0.0422,-0.16898 -0.0845,-0.12673 -0.0422,-0.25347 -0.0422,-0.16898 q -0.0634,-0.12673 -0.0845,-0.25346 l -0.0423,-0.16898 q -0.15841,-0.31684 -0.21122,-0.59142 l -0.0422,-0.12674 -0.0422,-0.0845 -0.0845,-0.3802 -0.0422,-0.12673 -0.21122,-0.54918 z"
         style="font-style:normal;font-variant:normal;font-weight:normal;font-stretch:normal;font-family:'Transport Heavy';-inkscape-font-specification:'Transport Heavy, ';text-align:center;text-anchor:middle;stroke-width:0.12977503"
         id="path904"
         inkscape:connector-curvature="0" />
      <path
         d="m -144.47647,114.18692 h 0.16898 0.7604 0.16898 0.16898 0.16897 0.71816 0.12673 0.50694 v 6.12545 h 0.46469 0.16897 0.12674 0.21122 0.12673 0.16898 0.12673 0.84489 0.84489 0.21123 0.71815 0.16898 0.21122 0.54918 0.16898 0.71816 0.12673 0.50693 v -0.29571 -0.25346 -0.29572 -0.84489 -0.29571 -0.25346 -0.21123 -0.25346 -0.16898 -0.7604 -0.46469 -0.16898 -0.16898 -0.16897 -0.16898 -0.71816 -0.12673 -0.50694 h 0.54918 0.16898 0.7604 0.16898 0.16897 0.16898 0.71816 0.33795 0.29572 v 16.13739 h -0.54918 -0.16898 -0.7604 -0.16898 -0.16898 -0.16897 -0.71816 -0.12673 -0.50694 v -0.29571 -0.12673 -0.12673 -1.30958 -0.29571 -0.25347 -0.29571 -0.25347 -0.21122 -0.25347 -0.16898 -0.7604 -0.46469 -0.16897 -0.16898 -0.16898 -0.16898 -0.71815 -0.12674 -0.50693 h -0.25346 -0.29572 -0.25346 -0.71816 -0.25347 -0.21122 -0.25347 -0.16897 -0.7604 -0.46469 -0.16898 -0.16898 -0.16898 -0.16897 -0.71816 -0.12673 -0.50694 -0.12673 -0.12673 -0.54918 v 6.8436 h -0.54918 -0.16898 -0.7604 -0.16898 -0.16898 -0.16897 -0.71816 -0.12673 -0.50694 v -0.12673 -0.16898 -0.12673 -0.16898 -0.7604 -0.33795 -0.33796 -0.12673 -0.84489 -0.16898 -0.21122 -0.16898 -0.21122 -0.54918 -0.16898 -0.71816 -0.12673 -0.50693 -0.16898 -0.21122 -0.54918 -0.16898 -0.71816 -0.12673 -0.50693 -0.29571 -0.33796 -0.33796 -0.33795 -0.12674 -0.12673 -1.30958 -0.29571 -0.25347 -0.29571 -0.25346 -0.21123 -0.25346 -0.16898 -0.7604 -0.46469 -0.16898 -0.16898 -0.16897 -0.16898 -0.71816 -0.12673 -0.50694 z"
         style="font-style:normal;font-variant:normal;font-weight:normal;font-stretch:normal;font-family:'Transport Heavy';-inkscape-font-specification:'Transport Heavy, ';text-align:center;text-anchor:middle;stroke-width:0.12977503"
         id="path906"
         inkscape:connector-curvature="0" />
      <path
         d="m -126.77603,114.14468 h 0.16898 0.71815 0.12674 0.50693 0.84489 0.16898 0.7604 0.12673 0.12674 1.30958 0.71815 0.33796 0.29571 0.16898 0.12673 0.84489 0.16898 0.12673 0.7604 0.54918 0.16898 0.71815 0.12674 0.50693 v 3.21058 h -0.84489 -0.25347 -0.71815 -0.12673 -0.50694 -0.54918 -0.16897 -0.71816 -0.12673 -0.50694 -0.46469 -0.21122 -0.54918 -0.16898 -0.71815 -0.12674 -0.50693 v 3.25282 h 0.12673 0.84489 0.54918 0.16898 0.7604 0.16898 0.16898 0.16897 0.71816 0.33796 0.29571 0.21122 0.54918 0.16898 0.71815 0.12674 0.50693 v 2.99936 h -0.59142 -0.12674 -0.21122 -0.12673 -0.16898 -0.12673 -0.84489 -0.54918 -0.29571 -0.59143 -0.12673 -0.7604 -0.54918 -0.16898 -0.71815 -0.12674 -0.50693 v 3.37956 q 0.0845,0.17954 0.29571,0.12673 h 0.33796 0.84489 0.25346 0.71816 0.12673 0.50694 0.54918 0.16897 0.71816 0.12673 0.50694 0.46469 0.21122 0.54918 0.16897 0.71816 0.12673 0.50694 v 3.21058 h -0.12674 -0.16897 -0.71816 -0.12673 -0.50694 -0.84489 -0.33795 -0.33796 -0.33795 -0.33796 -0.84489 -0.12673 -0.12674 -1.30957 -0.29572 -0.25346 -0.29571 -0.25347 -0.21122 -0.25347 -0.16898 -0.7604 -0.46469 -0.16898 -0.16897 -0.16898 -0.16898 -0.71816 -0.12673 -0.50693 v -0.16897 -0.7604 -0.33796 -0.33796 -0.12673 -0.16898 -0.7604 -0.12673 -0.84489 -0.33796 -0.16897 -0.7604 -0.12674 -0.12673 -1.30958 -0.29571 -0.12674 -0.16897 -0.7604 -0.59143 -0.12673 -0.21122 -0.12674 -0.16897 -0.12674 -0.84489 -0.71815 -0.12674 -0.50693 -0.54918 -0.16898 -0.71815 -0.12674 -0.50693 -0.46469 -0.21122 -0.54918 -0.16898 -0.71815 -0.12674 -0.50693 z"
         style="font-style:normal;font-variant:normal;font-weight:normal;font-stretch:normal;font-family:'Transport Heavy';-inkscape-font-specification:'Transport Heavy, ';text-align:center;text-anchor:middle;stroke-width:0.12977503"
         id="path908"
         inkscape:connector-curvature="0" />
      <path
         d="m -107.55479,114.14468 h 0.54917 1.30958 0.59143 0.12673 0.21122 0.12674 0.16897 0.12674 0.84489 v 0.12673 q 0.17954,0.3802 0.25346,0.67591 l 0.0845,0.29572 0.0423,0.16897 q 0.0422,0.0634 0.0422,0.12674 0.0422,0.0634 0.0422,0.12673 0.0422,0.0634 0.0422,0.12673 0.10561,0.16898 0.12673,0.33796 l 0.25347,0.67591 v 0.12673 q 0.20066,0.39077 0.25347,0.71816 0.20066,0.46469 0.25346,0.80265 0.0634,0.12673 0.0845,0.25346 l 0.0845,0.16898 q 0.0634,0.21122 0.12674,0.33796 v 0.12673 q 0.0422,0.0634 0.0422,0.12673 0.10561,0.16898 0.12673,0.33796 l 0.25347,0.67591 0.0422,0.16898 0.0422,0.0845 0.0845,0.3802 0.0845,0.16898 0.0845,0.21122 0.0422,0.12673 0.0422,0.16898 0.0845,0.25347 q 0.0634,0.21122 0.12674,0.33795 v 0.12674 q 0.0422,0.0634 0.0422,0.12673 0.10561,0.16898 0.12674,0.33796 l 0.25346,0.67591 0.0422,0.25346 0.12673,0.25347 0.0845,0.25347 v 0.12673 l 0.08449,0.12673 0.04224,0.16898 0.04224,0.21122 q 0.327395,0.74984 0.422445,1.26734 0.04224,0.0634 0.04224,0.12673 0.327394,0.74984 0.422444,1.26734 l 0.08449,0.12673 0.04224,0.16898 0.04224,0.16898 0.04224,0.12673 0.04224,0.16898 q 0.04225,0.0634 0.04225,0.12673 0.04224,0.0634 0.04224,0.12673 0.04224,0.0634 0.04224,0.12674 l 0.08449,0.12673 v 0.12673 q 0.04224,0.0634 0.04224,0.12674 0.105611,0.16898 0.126734,0.33795 0.137294,0.31684 0.168977,0.50694 l 0.08449,0.25346 h -0.253466 -0.168978 -0.760401 -0.464689 -0.168978 -0.168978 -0.16897 -0.16898 -0.71816 -0.12673 -0.50693 l -0.0845,-0.25346 v -0.16898 l -0.0845,-0.12673 v -0.12674 q -0.12674,-0.23234 -0.12674,-0.42244 l -0.0845,-0.12674 v -0.12673 l -0.0422,-0.16898 -0.12673,-0.29571 -0.29571,-1.05611 h -0.7604 -0.84489 -0.29572 -0.25346 -0.21122 -0.25347 -0.16898 -0.7604 -0.4647 -0.16898 -0.16898 -0.16897 -0.16898 -0.71816 -0.12673 -0.50693 l -0.0422,0.21122 -0.0422,0.21123 -0.0845,0.16897 q -0.0528,0.23235 -0.12673,0.42245 l -0.0422,0.21122 -0.0422,0.0845 -0.12674,0.42244 -0.0422,0.16898 -0.0423,0.12674 q -0.0739,0.22178 -0.12673,0.33795 l -0.12673,0.50693 h -0.16898 -0.16898 -0.12673 -0.84489 -0.12674 -0.7604 -0.12673 -1.30958 l 0.0845,-0.33795 0.12673,-0.42245 0.0423,-0.12673 0.0422,-0.12673 0.0422,-0.12674 0.0422,-0.0845 0.21122,-0.67591 0.0422,-0.12673 0.0422,-0.12673 0.0422,-0.16898 0.0845,-0.16898 0.12673,-0.46469 0.0422,-0.12673 0.0422,-0.12674 0.0422,-0.12673 0.0422,-0.0845 q 0.12673,-0.48581 0.25346,-0.7604 l 0.0845,-0.29571 0.0422,-0.0845 q 0.12673,-0.48581 0.25346,-0.7604 0.0528,-0.21122 0.12674,-0.33796 l 0.0845,-0.33795 0.12673,-0.29571 0.0845,-0.33796 0.0422,-0.0845 q 0.12674,-0.48581 0.25347,-0.7604 l 0.0845,-0.33795 0.33796,-0.92938 0.0845,-0.29571 0.0422,-0.12674 0.0422,-0.12673 q 0.12674,-0.40132 0.25347,-0.67591 l 0.0845,-0.25347 0.0422,-0.12673 v -0.12674 l 0.0422,-0.12673 0.29571,-0.7604 0.0422,-0.25347 0.0845,-0.21122 0.0845,-0.16898 q 0.0845,-0.40132 0.21122,-0.67591 l 0.0423,-0.21122 0.0422,-0.12673 0.0423,-0.0845 q 0.12673,-0.48582 0.25346,-0.7604 l 0.0423,-0.16898 0.0422,-0.16898 q 0.11618,-0.24291 0.16898,-0.46469 l 0.12673,-0.42244 0.0422,-0.12674 0.33796,-0.97162 z m 1.81651,3.71751 -0.12673,0.46469 -0.0422,0.0845 -0.21122,0.7604 -0.25347,0.71816 -0.0422,0.0845 -0.25347,0.92938 -0.0422,0.16897 -0.25347,0.71816 -0.0845,0.21122 q -0.0422,0.33796 -0.16898,0.59143 -0.0317,0.2429 -0.12673,0.46468 l -0.0422,0.16898 q -0.0845,0.25347 -0.16897,0.42245 l -0.25347,0.92938 h 0.12673 0.16898 0.16898 0.16898 0.16897 0.71816 0.12673 0.50694 0.16898 0.46469 0.21122 0.12673 0.16898 0.12673 0.84489 l -0.0845,-0.33796 -0.25346,-0.80265 -0.21123,-0.71815 q -0.15841,-0.40132 -0.21122,-0.67591 l -0.0422,-0.0845 q -0.0845,-0.30627 -0.16898,-0.50694 l -0.0423,-0.16897 -0.0422,-0.16898 -0.0845,-0.21122 -0.0422,-0.25347 -0.0422,-0.16898 -0.0845,-0.12673 -0.0422,-0.25347 -0.0423,-0.16898 q -0.0634,-0.12673 -0.0845,-0.25346 l -0.0422,-0.16898 q -0.15842,-0.31684 -0.21122,-0.59142 l -0.0422,-0.12674 -0.0422,-0.0845 -0.0845,-0.3802 -0.0422,-0.12673 -0.21123,-0.54918 z"
         style="font-style:normal;font-variant:normal;font-weight:normal;font-stretch:normal;font-family:'Transport Heavy';-inkscape-font-specification:'Transport Heavy, ';text-align:center;text-anchor:middle;stroke-width:0.12977503"
         id="path910"
         inkscape:connector-curvature="0" />
      <path
         d="m -94.796963,114.14468 h 0.211222 0.168978 0.211222 0.168978 0.211223 0.549178 0.168978 0.718156 0.126734 0.506933 0.168978 0.168978 0.549178 0.168978 0.168978 0.422445 0.464689 0.126734 0.464689 0.337956 0.211222 l 0.126734,0.0422 h 0.168978 0.168977 l 0.08449,0.0422 0.675912,0.0845 q 6.431722,2.12278 5.576271,9.33603 -1.288456,7.47727 -10.054186,6.67462 h -0.168978 -0.211222 -0.168978 -0.211222 -0.168978 -0.211223 -0.549178 -0.168978 -0.718156 -0.126733 -0.506934 v -0.16897 -0.7604 -0.33796 -0.33796 -0.12673 -0.16898 -0.7604 -0.12673 -0.84489 -0.33796 -0.16897 -0.7604 -0.12674 -0.12673 -1.30958 -0.29571 -0.12674 -0.16897 -0.7604 -0.59143 -0.12673 -0.21122 -0.12674 -0.16897 -0.12674 -0.84489 -0.71815 -0.12674 -0.50693 -0.54918 -0.16898 -0.71815 -0.12674 -0.50693 -0.46469 -0.21122 -0.54918 -0.16898 -0.71815 -0.12674 -0.50693 z m 3.126091,12.88457 h 0.591423 0.126733 0.337956 0.126734 0.126733 0.549178 0.168978 0.126734 0.844889 l 0.295712,-0.0423 q 0.390761,-0.0422 0.675911,-0.16898 l 0.253467,-0.0422 q 2.788136,-1.55249 2.492424,-4.85812 -0.411883,-4.90036 -5.153826,-4.47791 h -0.126733 -0.126734 -1.309579 z"
         style="font-style:normal;font-variant:normal;font-weight:normal;font-stretch:normal;font-family:'Transport Heavy';-inkscape-font-specification:'Transport Heavy, ';text-align:center;text-anchor:middle;stroke-width:0.12977503"
         id="path912"
         inkscape:connector-curvature="0" />
    </g>
  </g>
</svg>
